<?xml version="1.0" standalone="no"?>
<!DOCTYPE svg PUBLIC "-//W3C//DTD SVG 20010904//EN"
 "http://www.w3.org/TR/2001/REC-SVG-20010904/DTD/svg10.dtd">
<svg version="1.0" xmlns="http://www.w3.org/2000/svg"
 width="512.000000pt" height="512.000000pt" viewBox="0 0 512.000000 512.000000"
 preserveAspectRatio="xMidYMid meet">
<metadata>
Created by potrace 1.16, written by Peter Selinger 2001-2019
</metadata>
<g transform="translate(0.000000,512.000000) scale(0.100000,-0.100000)"
fill="#000000" stroke="none">
<path d="M1442 4478 c-17 -22 -50 -141 -63 -228 -13 -91 -7 -190 17 -286 l15
-62 -52 -68 c-61 -80 -119 -200 -145 -299 -15 -56 -19 -106 -19 -250 0 -183
11 -271 45 -385 l18 -60 -211 0 c-239 0 -384 -10 -602 -41 -134 -19 -178 -30
-164 -43 2 -2 36 2 74 9 163 31 352 47 625 52 l286 6 16 -41 16 -40 -87 -7
c-320 -23 -588 -60 -805 -111 -122 -29 -129 -32 -121 -44 3 -4 37 1 77 11 228
60 470 95 863 124 l81 6 48 -70 c146 -214 417 -356 767 -403 l89 -12 -49 -51
c-52 -55 -81 -104 -101 -172 -12 -40 -17 -43 -74 -63 -34 -12 -95 -24 -137
-27 -157 -12 -273 53 -375 208 -25 37 -63 84 -86 104 -86 78 -228 118 -278 77
-23 -19 -23 -20 -7 -45 9 -15 43 -44 75 -66 77 -52 128 -121 196 -262 43 -90
66 -126 106 -163 57 -54 148 -100 229 -117 58 -12 281 -8 314 6 16 7 17 -6 17
-185 0 -234 -7 -267 -70 -329 -25 -25 -58 -54 -73 -64 -15 -10 -27 -27 -27
-37 0 -31 36 -43 106 -36 122 13 206 57 251 133 l28 48 5 320 c5 309 6 322 28
363 12 23 27 42 33 42 7 0 9 -117 7 -377 -5 -422 -8 -445 -73 -523 -62 -74
-37 -123 52 -100 101 25 178 87 222 180 l26 55 6 395 c3 217 6 396 7 398 1 1
13 2 27 2 l25 0 1 -287 c1 -398 9 -507 43 -577 15 -30 43 -68 62 -85 82 -73
202 -107 230 -66 15 22 12 29 -38 101 -53 76 -58 123 -58 524 1 334 2 363 16
345 46 -57 48 -76 54 -405 6 -352 5 -348 80 -412 48 -42 122 -68 210 -75 56
-5 67 -3 83 15 24 27 10 55 -41 81 -47 24 -66 45 -91 101 -19 42 -21 65 -21
370 0 357 -7 420 -57 513 -15 28 -47 71 -71 95 -24 24 -42 45 -40 46 2 2 44 8
95 14 158 21 317 66 442 128 99 49 125 67 195 137 50 50 94 106 114 145 l34
63 101 -6 c296 -18 600 -60 821 -114 69 -17 115 -24 113 -17 -7 22 -304 85
-542 116 -82 10 -224 24 -315 30 -91 6 -166 13 -168 15 -2 1 4 20 12 40 l16
38 293 -6 c279 -5 445 -18 633 -51 43 -8 81 -12 84 -10 11 11 -30 23 -129 38
-212 32 -281 37 -577 43 l-301 6 13 55 c41 176 44 525 5 659 -39 134 -94 237
-182 337 l-41 46 13 53 c20 79 15 265 -10 360 -31 118 -39 131 -85 135 -83 7
-309 -78 -464 -175 l-73 -45 -82 16 c-155 30 -232 37 -407 38 -183 0 -275 -9
-450 -43 l-105 -21 -107 65 c-121 73 -218 116 -331 146 -87 24 -140 27 -155 9z
m1138 -1063 c113 0 295 4 405 9 224 9 293 0 388 -51 66 -36 160 -141 200 -222
29 -60 32 -76 35 -181 12 -383 -165 -567 -594 -620 -152 -19 -660 -17 -809 3
-366 50 -555 171 -628 401 -18 58 -22 94 -22 196 0 123 1 126 36 200 43 90
127 185 198 224 91 49 152 57 381 49 113 -4 297 -8 410 -8z"/>
<path d="M1969 3124 c-82 -53 -111 -202 -59 -304 42 -82 109 -109 170 -68 100
67 110 271 17 356 -33 31 -94 38 -128 16z"/>
<path d="M3120 3118 c-47 -32 -74 -90 -78 -170 -11 -196 157 -291 246 -139 23
40 27 57 27 126 0 94 -25 153 -78 185 -42 26 -76 25 -117 -2z"/>
</g>
</svg>
